<?xml version="1.0" encoding="UTF-8" standalone="no"?>
<!DOCTYPE svg PUBLIC "-//W3C//DTD SVG 1.1//EN" "http://www.w3.org/Graphics/SVG/1.1/DTD/svg11.dtd">
<svg width="100%" height="100%" viewBox="0 0 1338 326" version="1.1" xmlns="http://www.w3.org/2000/svg" xmlns:xlink="http://www.w3.org/1999/xlink" xml:space="preserve" xmlns:serif="http://www.serif.com/" style="fill-rule:evenodd;clip-rule:evenodd;stroke-linecap:square;stroke-miterlimit:1.5;">
    <g transform="matrix(1,0,0,1,-136,-4530)">
        <g id="logo-luminote" transform="matrix(0.696057,0,0,0.300871,136.853,4531.98)">
            <rect x="0" y="0" width="1920" height="1080" style="fill:none;"/>
            <clipPath id="_clip1">
                <rect x="0" y="0" width="1920" height="1080"/>
            </clipPath>
            <g clip-path="url(#_clip1)">
                <g transform="matrix(1.17976,0,0,1.59526,-196.612,-322.945)">
                    <g transform="matrix(1.24541,0,0,1.69144,106.896,-2484.63)">
                        <path d="M1314.86,1705.43L1314.86,1870.97C1314.86,1908.62 1290.59,1939.19 1260.7,1939.19L141.241,1939.19C111.349,1939.19 87.081,1908.62 87.081,1870.97L87.081,1705.43C87.081,1667.77 111.349,1637.2 141.241,1637.2L1260.7,1637.2C1290.59,1637.2 1314.86,1667.77 1314.86,1705.43Z" style="fill:white;stroke:black;stroke-width:86.64px;"/>
                    </g>
                    <g transform="matrix(1.24541,0,0,1.69144,106.896,-2484.63)">
                        <path d="M1314.86,1705.43L1314.86,1870.97C1314.86,1908.62 1290.59,1939.19 1260.7,1939.19L141.241,1939.19C111.349,1939.19 87.081,1908.62 87.081,1870.97L87.081,1705.43C87.081,1667.77 111.349,1637.2 141.241,1637.2L1260.7,1637.2C1290.59,1637.2 1314.86,1667.77 1314.86,1705.43Z" style="fill:white;stroke:white;stroke-width:43.32px;"/>
                    </g>
                    <g transform="matrix(0.945012,0,0,1.38913,689.048,-4708.97)">
                        <rect x="0" y="3598.09" width="498.935" height="75.624" style="fill:rgb(255,187,29);"/>
                    </g>
                    <g transform="matrix(1.24541,0,0,1.69144,106.896,-2487.9)">
                        <path d="M152.645,1939.19L141.241,1939.19C111.349,1939.19 87.081,1908.62 87.081,1870.97L87.081,1705.43C87.081,1667.77 111.349,1637.2 141.241,1637.2L1260.7,1637.2C1290.59,1637.2 1314.86,1667.77 1314.86,1705.43L1314.86,1870.97C1314.86,1900.59 1299.83,1925.83 1278.87,1935.25L1278.92,1908.57L1259.36,1908.52C1237.6,1908.46 1219.91,1905.26 1209.45,1891.86C1203.61,1884.38 1200.92,1873.57 1200.65,1859.25C1231.18,1859.25 1250.02,1852.85 1261.57,1839.09C1273.31,1825.09 1279.63,1801.62 1278.87,1760.43L1279.09,1760.43L1278.65,1711.16L1259.1,1711.44C1217.69,1712.02 1192.4,1719.63 1178.06,1739.85C1167.85,1754.25 1161.8,1775.85 1161.54,1809.73C1161.54,1809.93 1161.54,1859.25 1161.54,1859.25C1161.54,1859.4 1161.54,1859.56 1161.54,1859.71C1161.98,1889.45 1169.49,1910.95 1181.57,1926.42C1185.34,1931.25 1189.65,1935.5 1194.46,1939.19L1122.46,1939.19L1122.3,1908.36L1102.74,1908.52C1079.4,1908.71 1064.54,1886.58 1063.76,1858.89C1063.76,1857.86 1063.76,1853.9 1063.76,1847.9C1074.94,1855.3 1088.16,1859.37 1103,1859.25L1122.55,1859.09L1122.3,1809.82L1102.74,1809.98C1091.07,1810.07 1081.15,1805.81 1074.29,1797.22C1067.4,1788.59 1063.87,1775.96 1063.76,1760.88C1063.76,1733.66 1063.76,1711.43 1063.76,1711.43L1024.52,1711.43L1024.54,1736.21L1024.54,1736.21L1024.54,1736.91L1024.64,1859.23C1024.64,1859.48 1024.65,1859.73 1024.65,1859.98C1025.43,1892.98 1036.65,1921.58 1055.46,1939.19L965.762,1939.19C977.887,1925.65 985.533,1905.88 985.533,1883.88L985.533,1785.34C985.533,1744.55 959.245,1711.43 926.865,1711.43C894.486,1711.43 868.197,1744.55 868.197,1785.34L868.197,1883.88C868.197,1905.88 875.844,1925.65 887.969,1939.19L829.195,1939.19L829.085,1810L829.085,1809.74C828.565,1777.49 821.39,1756.02 809.942,1741.16C794.187,1720.71 768.105,1712.24 731.647,1711.44L711.749,1711L711.749,1939.19L672.634,1939.19L672.637,1933.17L672.762,1711.43L633.4,1711.43L633.525,1933.14L633.522,1939.19L594.413,1939.19L594.413,1810C594.413,1809.89 594.413,1809.78 594.411,1809.67C594.1,1778.4 586.917,1757.18 576.116,1742.38C560.784,1721.39 536.497,1712.81 507.13,1711.45C506.891,1711.44 506.651,1711.43 506.411,1711.43L418.575,1711.43L398.853,1711.01L398.853,1939.19L359.741,1939.19L359.741,1711.43L320.629,1711.43L320.629,1907.6C307.488,1906.25 296.978,1902.87 289.918,1893.92C284.061,1886.5 281.784,1875.12 281.517,1859.04C281.521,1853.44 281.517,1711.43 281.517,1711.43L242.405,1711.43L242.405,1859.23L242.404,1859.47C242.9,1892.1 250.417,1913.75 262.176,1928.65C265.304,1932.62 268.817,1936.12 272.703,1939.19L222.818,1939.19L222.974,1908.68L203.419,1908.52C190.207,1908.41 179.989,1905.21 173.359,1896.78C166.732,1888.35 164.286,1875.5 164.181,1859.21C164.183,1855.51 164.18,1711.43 164.18,1711.43L125.068,1711.43L125.068,1859.23C125.068,1859.29 125.069,1859.36 125.069,1859.42C125.247,1891.15 132.672,1915.04 145.565,1931.44C147.751,1934.22 150.109,1936.81 152.645,1939.19ZM819.307,1662.16L799.751,1662.16L799.751,1686.8L819.307,1686.8L819.307,1662.16ZM672.637,1662.16L633.525,1662.16L633.525,1686.8L672.637,1686.8L672.637,1662.16ZM506.411,1662.16L486.855,1662.16L486.855,1686.8L506.411,1686.8L506.411,1662.16ZM594.413,1662.16L565.079,1662.16L565.079,1686.8L594.413,1686.8L594.413,1662.16ZM741.083,1662.16L711.749,1662.16L711.749,1686.8L741.083,1686.8L741.083,1662.16ZM789.973,1939.19L750.861,1939.19L750.861,1762.04C756.046,1762.72 760.844,1763.69 765.244,1765.07C772.092,1767.22 777.786,1770.17 781.875,1775.48C787.602,1782.91 789.692,1794.24 789.972,1810.18C789.97,1814.64 789.972,1900.53 789.973,1939.19ZM555.191,1939.19L516.189,1939.19L516.189,1810L516.189,1809.86C516.018,1789.69 513.023,1773.66 507.879,1760.8C524.336,1761.67 538.643,1763.84 547.33,1775.74C552.77,1783.19 555.124,1794.37 555.3,1810.08C555.298,1813.7 555.225,1900.31 555.191,1939.19ZM477.076,1939.19L437.965,1939.19L437.965,1761.81C451.306,1763.33 461.909,1766.91 468.965,1775.93C474.738,1783.32 476.93,1794.49 477.077,1810.08C477.074,1813.43 477.076,1900.05 477.076,1939.19ZM1239.77,1761.48C1240.02,1774.61 1239.69,1785.06 1238.21,1793.33C1237.45,1797.59 1236.61,1801 1234.69,1803.29C1232.59,1805.79 1229.6,1806.81 1225.94,1807.76C1219.19,1809.51 1210.85,1809.98 1200.65,1809.98C1200.8,1792.25 1201.87,1780.24 1207.23,1772.68C1210.55,1768 1215.51,1765.93 1221.76,1764.27C1227.04,1762.86 1233.03,1762 1239.77,1761.48ZM946.421,1785.34L946.421,1883.88C946.421,1897.48 937.659,1908.52 926.865,1908.52C916.072,1908.52 907.309,1897.48 907.309,1883.88L907.309,1785.34C907.309,1771.75 916.072,1760.71 926.865,1760.71C937.659,1760.71 946.421,1771.75 946.421,1785.34Z"/>
                    </g>
                </g>
            </g>
        </g>
    </g>
</svg>
